
<svg width="96" height="96" viewBox="0 0 96 96" xmlns="http://www.w3.org/2000/svg">
  <rect width="96" height="96" fill="#4F46E5" rx="12"/>
  <g transform="translate(16,16)" fill="white">
    <!-- QR Code pattern -->
    <rect x="0" y="0" width="20" height="20" rx="2"/>
    <rect x="4" y="4" width="12" height="12" rx="1" fill="#4F46E5"/>
    <rect x="8" y="8" width="4" height="4" fill="white"/>
    
    <rect x="44" y="0" width="20" height="20" rx="2"/>
    <rect x="48" y="4" width="12" height="12" rx="1" fill="#4F46E5"/>
    <rect x="52" y="8" width="4" height="4" fill="white"/>
    
    <rect x="0" y="44" width="20" height="20" rx="2"/>
    <rect x="4" y="48" width="12" height="12" rx="1" fill="#4F46E5"/>
    <rect x="8" y="52" width="4" height="4" fill="white"/>
    
    <!-- Pattern dots -->
    <rect x="28" y="8" width="4" height="4"/>
    <rect x="36" y="8" width="4" height="4"/>
    <rect x="28" y="16" width="4" height="4"/>
    <rect x="36" y="16" width="4" height="4"/>
    
    <rect x="8" y="28" width="4" height="4"/>
    <rect x="16" y="28" width="4" height="4"/>
    <rect x="8" y="36" width="4" height="4"/>
    <rect x="16" y="36" width="4" height="4"/>
    
    <rect x="28" y="28" width="4" height="4"/>
    <rect x="36" y="28" width="4" height="4"/>
    <rect x="44" y="28" width="4" height="4"/>
    <rect x="52" y="28" width="4" height="4"/>
    <rect x="60" y="28" width="4" height="4"/>
    
    <rect x="28" y="36" width="4" height="4"/>
    <rect x="36" y="36" width="4" height="4"/>
    <rect x="44" y="36" width="4" height="4"/>
    <rect x="52" y="36" width="4" height="4"/>
    <rect x="60" y="36" width="4" height="4"/>
    
    <rect x="28" y="52" width="4" height="4"/>
    <rect x="36" y="52" width="4" height="4"/>
    <rect x="44" y="52" width="4" height="4"/>
    <rect x="52" y="52" width="4" height="4"/>
    <rect x="60" y="52" width="4" height="4"/>
    
    <rect x="28" y="60" width="4" height="4"/>
    <rect x="36" y="60" width="4" height="4"/>
    <rect x="44" y="60" width="4" height="4"/>
    <rect x="52" y="60" width="4" height="4"/>
    <rect x="60" y="60" width="4" height="4"/>
  </g>
</svg>
